{"title":"Lone Survivor 2013 DVDrip English Klam","uid":9768181,"size":2233407787,"categoryP":"video","categoryS":"movies","magnet":"?xt=urn:btih:905de3eb3f8ff47d2bbb6a32e10dc2c3a1c370e9&amp;dn=Lone+Survivor+2013+DVDrip+English+Klam&amp;tr=udp%3A%2F%2Ftracker.openbittorrent.com%3A80&amp;tr=udp%3A%2F%2Fopen.demonii.com%3A1337&amp;tr=udp%3A%2F%2Ftracker.coppersurfer.tk%3A6969&amp;tr=udp%3A%2F%2Fexodus.desync.com%3A6969","seeders":3,"leechers":0,"uploader":"Klambake","files":-1,"time":1394913042,"description":"With: Mark Wahlberg, Taylor Kitsch and Eric Bana\n\nDe film is gebaseerd op de mislukte missie &quot;Operation Red Wings&quot;, die op 28 juni 2005 werd uitgevoerd door Navy Seal Team 10. Het doel van het team is om Taliban-leider Ahmad Shah te doden. De missie komt echter al snel in het gedrang als het team nabij het Hindu Kush gebergte in een hinderlaag van de Taliban loopt. Marcus Luttrell (Mark Wahlberg) moet alles op alles zetten om deze nachtmerrie te overleven.\n\nBased on the failed June 28, 2005 mission &quot;Operation Red Wings&quot;. Four members of SEAL Team 10 were tasked with the mission to capture or kill notorious Taliban leader Ahmad Shahd. \n &lt;a href=&quot;\nhttp://www.imdb.com/title/tt1091191&quot; rel=&quot;nofollow&quot; target=&quot;_NEW&quot;&gt;\nhttp://www.imdb.com/title/tt1091191&lt;/a&gt;\t\n\n--------------------- Dutch Friends 4ever ---------------------\n---------------------------------------------------------------\n- Bezoek ook eens mijn vrienden op: &lt;a href=&quot; http://www.Film-Test.nl&quot; rel=&quot;nofollow&quot; target=&quot;_NEW&quot;&gt; http://www.Film-Test.nl&lt;/a&gt; --\n----- voor mijn Nederlandse Sync. ondertitels ---- en meer ----\n------- http://www.Film-Test.nl ---- Over Films en meer -------\n---------------------------------------------------------------\n\nGeneral:\n\nComplete name                            : Lone SurvivorLone Survivor.avi\nFormat                                   : AVI\nFormat/Info                              : Audio Video Interleave\nFile size                                : 2.08 GiB\nDuration                                 : 2h 1mn\nOverall bit rate                         : 2 456 Kbps\n\nVideo:\n\nFormat                                   : MPEG-4 Visual\nFormat profile                           : Simple@L3\nFormat settings, BVOP                    : No\nFormat settings, QPel                    : No\nFormat settings, GMC                     : No warppoints\nFormat settings, Matrix                  : Default (H.263)\nCodec ID                                 : XVID\nCodec ID/Hint                            : XviD\nDuration                                 : 2h 1mn\nBit rate                                 : 1 997 Kbps\nWidth                                    : 720 pixels\nHeight                                   : 304 pixels\nDisplay aspect ratio                     : 2.35:1\nFrame rate                               : 25.000 fps\nColor space                              : YUV\nChroma subsampling                       : 4:2:0\nBit depth                                : 8 bits\nScan type                                : Progressive\nCompression mode                         : Lossy\nBits/(Pixel*Frame)                       : 0.365\nStream size                              : 1.69 GiB (81%)\nWriting library                          : XviD 1.1.2 (UTC 2006-11-01)\n\nAudio:\n\nFormat                                   : AC-3\nFormat/Info                              : Audio Coding 3\nMode extension                           : CM (complete main)\nFormat settings, Endianness              : Big\nCodec ID                                 : 2000\nDuration                                 : 2h 1mn\nSource duration                          : 2h 1mn\nBit rate mode                            : Constant\nBit rate                                 : 448 Kbps\nChannel(s)                               : 6 channels\nChannel positions                        : Front: L C R, Side: L R, LFE\nSampling rate                            : 48.0 KHz\nBit depth                                : 16 bits\nCompression mode                         : Lossy\nStream size                              : 388 MiB (18%)\nAlignment                                : Aligned on interleaves\nInterleave, duration                     : 32 ms (0.80 video frame)\n\n","torrent":{"xt":"urn:btih:905de3eb3f8ff47d2bbb6a32e10dc2c3a1c370e9","amp;dn":"Lone+Survivor+2013+DVDrip+English+Klam","amp;tr":["udp%3A%2F%2Ftracker.openbittorrent.com%3A80","udp%3A%2F%2Fopen.demonii.com%3A1337","udp%3A%2F%2Ftracker.coppersurfer.tk%3A6969","udp%3A%2F%2Fexodus.desync.com%3A6969"],"infoHash":"905de3eb3f8ff47d2bbb6a32e10dc2c3a1c370e9","infoHashBuffer":{"type":"Buffer","data":[144,93,227,235,63,143,244,125,43,187,106,50,225,13,194,195,161,195,112,233]},"announce":[],"urlList":[]}}